<?xml version="1.0" standalone="no"?>
<!DOCTYPE svg PUBLIC "-//W3C//DTD SVG 20010904//EN"
 "http://www.w3.org/TR/2001/REC-SVG-20010904/DTD/svg10.dtd">
<svg version="1.0" xmlns="http://www.w3.org/2000/svg"
 width="704.000000pt" height="704.000000pt" viewBox="0 0 704.000000 704.000000"
 preserveAspectRatio="xMidYMid meet">
<metadata>
Created by potrace 1.14, written by Peter Selinger 2001-2017
</metadata>
<g transform="translate(0.000000,704.000000) scale(0.100000,-0.100000)"
fill="#000000" stroke="none">
<path d="M3596 5843 c-3 -3 -20 -7 -38 -8 -54 -6 -92 -14 -135 -29 -23 -8 -44
-12 -47 -9 -3 4 -6 1 -6 -5 0 -7 -6 -12 -12 -12 -33 0 -296 -164 -306 -191 -2
-5 -10 -9 -18 -9 -9 0 -12 -4 -9 -10 3 -5 2 -10 -2 -10 -9 0 -106 -93 -133
-127 -8 -10 -33 -46 -55 -78 -22 -33 -44 -65 -50 -72 -5 -7 -16 -19 -22 -27
-7 -8 -13 -18 -13 -21 0 -9 -93 -139 -102 -143 -5 -2 -8 -10 -8 -18 0 -8 -3
-14 -8 -14 -4 0 -12 -8 -17 -19 -20 -36 -68 -106 -76 -109 -5 -2 -9 -10 -9
-17 0 -7 -3 -15 -7 -17 -5 -1 -37 -46 -73 -100 -35 -53 -69 -94 -74 -91 -5 4
-6 1 -3 -4 4 -6 -8 -30 -27 -54 -18 -24 -41 -59 -50 -76 -9 -18 -20 -33 -24
-33 -4 0 -20 -23 -37 -50 -16 -28 -33 -50 -37 -50 -4 0 -8 -6 -8 -13 0 -7 -8
-22 -17 -33 -10 -10 -51 -68 -92 -129 -41 -60 -78 -111 -83 -113 -4 -2 -8 -8
-8 -12 0 -11 -92 -144 -102 -148 -4 -2 -8 -10 -8 -18 0 -8 -4 -14 -10 -14 -5
0 -10 -7 -10 -15 0 -8 -5 -15 -10 -15 -6 0 -15 -10 -20 -22 -13 -29 -30 -56
-52 -82 -10 -11 -18 -23 -18 -26 0 -4 -9 -18 -20 -31 -12 -12 -31 -39 -42 -59
-12 -19 -24 -37 -27 -40 -9 -8 -91 -128 -91 -132 0 -3 35 -5 78 -5 396 -3 574
-8 578 -15 3 -5 11 -5 17 -1 23 14 36 11 43 -10 4 -12 5 -22 3 -23 -2 0 2 -8
9 -17 8 -9 10 -22 6 -28 -4 -7 -3 -9 3 -6 7 5 35 -51 36 -73 0 -3 7 -11 14
-18 7 -8 11 -18 8 -23 -4 -5 -1 -9 5 -9 6 0 8 -4 5 -10 -3 -5 -1 -10 4 -10 6
0 10 -3 9 -7 -1 -8 8 -31 40 -106 29 -65 35 -81 34 -89 -1 -5 2 -8 8 -8 5 0
10 -8 10 -18 0 -10 4 -22 9 -28 12 -12 76 -167 73 -176 -1 -5 2 -8 6 -8 9 0
48 -100 44 -112 -1 -5 2 -8 7 -8 5 0 13 -10 17 -22 4 -13 17 -45 29 -73 48
-105 84 -195 79 -195 -3 0 2 -7 10 -16 9 -8 14 -20 11 -25 -4 -5 -1 -9 4 -9 6
0 11 -7 11 -15 0 -9 7 -27 16 -40 9 -14 14 -25 11 -25 -3 0 5 -19 17 -43 13
-23 22 -50 20 -60 -1 -9 1 -15 6 -12 4 2 25 -21 45 -53 41 -61 151 -175 200
-207 49 -32 95 -55 95 -49 0 4 6 2 13 -3 38 -31 225 -58 259 -37 4 3 8 -1 8
-8 0 -9 2 -10 8 -1 4 6 27 13 52 15 25 1 48 6 51 11 3 4 15 9 28 12 12 2 36
11 53 19 17 9 34 13 39 10 5 -3 9 0 9 5 0 6 7 11 15 11 8 0 15 4 15 10 0 5 3
9 8 8 4 -1 19 6 34 16 15 10 33 14 39 10 8 -4 9 -3 5 4 -4 7 -3 12 3 12 5 0
16 6 23 12 7 7 36 29 63 48 28 19 52 38 53 42 2 4 10 8 18 8 9 0 12 5 9 10 -3
6 -2 10 2 10 9 0 152 137 152 146 0 6 29 46 59 84 12 15 22 32 22 37 0 4 11
20 25 35 14 15 25 32 25 38 0 5 5 10 10 10 6 0 10 5 10 12 0 6 12 27 28 47 15
20 38 52 51 71 37 53 144 209 161 235 68 102 147 213 162 229 10 11 18 26 18
33 0 7 3 13 8 13 4 0 16 15 27 32 11 18 27 42 35 54 8 12 33 48 55 80 21 33
42 61 45 64 3 3 19 25 35 50 17 25 33 47 38 48 4 2 7 8 7 14 0 6 9 19 21 29
11 9 20 20 19 23 -1 8 208 314 232 340 10 11 18 25 18 31 0 6 8 20 18 31 10
10 28 35 42 54 13 19 29 38 35 42 6 5 6 8 0 8 -7 0 -7 3 0 8 11 8 67 87 83
118 11 20 9 21 -66 21 -370 3 -483 7 -488 15 -3 5 -10 5 -17 0 -7 -5 -34 -8
-62 -7 -66 4 -65 4 -65 14 0 5 -9 29 -20 55 -12 25 -21 49 -22 53 -1 5 -7 19
-14 32 -7 14 -10 29 -7 34 3 6 1 7 -5 3 -8 -5 -12 0 -12 13 0 12 -4 21 -10 21
-5 0 -10 7 -10 15 0 8 -13 44 -30 78 -16 35 -30 68 -30 73 0 5 -18 46 -40 92
-22 45 -40 84 -40 87 0 2 -12 30 -26 62 -14 32 -32 73 -40 91 -85 197 -108
249 -131 295 -8 15 -12 35 -9 43 3 9 1 12 -4 9 -6 -3 -10 1 -10 9 0 9 -4 16
-10 16 -5 0 -10 7 -10 16 0 8 -12 41 -26 72 -15 31 -32 68 -38 82 -12 27 -64
109 -99 155 -37 49 -141 155 -153 155 -6 0 -17 7 -24 14 -20 25 -130 74 -185
83 -16 3 -35 9 -40 13 -6 5 -17 5 -24 1 -7 -5 -28 -5 -47 -1 -18 4 -35 5 -38
3z m-213 -1405 c9 -18 13 -36 11 -40 -3 -4 -1 -8 5 -8 8 0 20 -23 26 -50 1 -3
16 -36 34 -75 18 -38 46 -101 63 -140 17 -38 40 -90 52 -115 11 -25 21 -47 21
-50 1 -3 13 -30 27 -60 15 -30 28 -62 30 -70 2 -8 7 -18 11 -21 5 -3 9 -12 11
-20 1 -8 10 -28 19 -46 9 -18 17 -39 17 -48 0 -8 5 -15 10 -15 6 0 10 -7 10
-16 0 -9 7 -28 15 -42 20 -36 39 -85 36 -95 -1 -5 2 -6 7 -3 5 3 17 0 26 -7
16 -11 15 -17 -13 -67 -16 -30 -35 -54 -42 -52 -8 2 -9 -1 -3 -10 6 -9 -4 -39
-32 -95 -34 -67 -45 -79 -54 -68 -6 8 -9 19 -5 25 3 5 3 10 -2 10 -13 0 -35
58 -27 71 4 7 3 9 -4 5 -10 -6 -28 30 -24 47 1 4 -3 7 -9 7 -5 0 -7 5 -4 10 3
6 1 10 -4 10 -6 0 -10 3 -9 8 1 4 -6 25 -15 47 -10 22 -17 44 -16 49 0 5 -4
12 -11 16 -6 4 -12 13 -14 21 -1 8 -7 24 -14 35 -6 12 -8 24 -5 28 3 3 2 6 -3
6 -11 0 -39 63 -35 76 2 4 -1 10 -6 13 -11 8 -45 71 -38 71 3 0 -10 31 -29 69
-19 38 -32 71 -29 75 4 3 1 6 -5 6 -7 0 -12 6 -12 13 0 8 -7 28 -16 45 -8 18
-12 37 -8 43 4 7 3 9 -3 6 -13 -8 -26 20 -16 36 3 7 3 9 -2 5 -11 -10 -40 44
-44 84 -1 3 -12 5 -26 3 -22 -2 -25 1 -19 19 4 11 10 23 14 26 4 3 13 22 21
43 7 20 17 37 21 37 4 0 7 3 6 8 -2 11 13 43 34 74 10 14 18 33 18 42 0 9 5
16 10 16 6 0 10 9 10 20 0 30 15 24 33 -12z"/>
<path d="M3350 4216 c0 -2 8 -10 18 -17 15 -13 16 -12 3 4 -13 16 -21 21 -21
13z"/>
<path d="M3435 3921 c-3 -5 -2 -12 3 -15 5 -3 9 1 9 9 0 17 -3 19 -12 6z"/>
<path d="M3556 3838 c3 -5 10 -6 15 -3 13 9 11 12 -6 12 -8 0 -12 -4 -9 -9z"/>
<path d="M3670 3566 c0 -2 7 -7 16 -10 8 -3 12 -2 9 4 -6 10 -25 14 -25 6z"/>
<path d="M2430 3042 c0 -5 7 -9 15 -9 8 0 12 4 9 9 -3 4 -9 8 -15 8 -5 0 -9
-4 -9 -8z"/>
<path d="M4746 2842 c-3 -5 1 -9 9 -9 8 0 12 4 9 9 -3 4 -7 8 -9 8 -2 0 -6 -4
-9 -8z"/>
<path d="M2676 1802 c-3 -5 1 -9 9 -9 8 0 12 4 9 9 -3 4 -7 8 -9 8 -2 0 -6 -4
-9 -8z"/>
<path d="M2993 1645 c0 -8 4 -12 9 -9 5 3 6 10 3 15 -9 13 -12 11 -12 -6z"/>
</g>
</svg>
