<svg xmlns="http://www.w3.org/2000/svg" aria-hidden="true" style="position:absolute;width:0;height:0;overflow:hidden"><defs><symbol id="icon-youtube" viewBox="0 0 32 32"><path fill="#fff" d="M21.244 9.636c-.865-.051-2.647-.102-5.345-.102h-.356c-2.596 0-4.327.051-5.193.153-1.171.102-1.985.407-2.444.815-.407.356-.713 1.018-.815 1.884-.051.56-.102 1.731-.102 3.513v.255c0 1.68.051 2.851.153 3.411.153.815.407 1.425.916 1.782.509.407 1.375.662 2.596.764.865.051 2.647.102 5.345.102h.356c2.596 0 4.327-.051 5.193-.153 1.171-.102 1.985-.407 2.444-.815.407-.356.713-1.018.815-1.884.051-.56.102-1.731.102-3.513v-.255c0-1.68-.051-2.851-.153-3.411-.153-.815-.407-1.425-.916-1.782-.509-.407-1.375-.662-2.596-.764zm-1.986 6.262-5.6 3.36v-6.72l5.6 3.36z" opacity=".8" style="fill:var(--color1, #fff)"/><path fill="none" stroke="#fff" stroke-width=".727" d="M7.273.364h17.455a6.909 6.909 0 0 1 6.909 6.909v17.455a6.909 6.909 0 0 1-6.909 6.909H7.273a6.909 6.909 0 0 1-6.909-6.909V7.273A6.909 6.909 0 0 1 7.273.364z" style="stroke:var(--color1, #fff)"/></symbol><symbol id="icon-burger" viewBox="0 0 32 32"><path fill="#fff" d="M2.667 7.993c0-.733.595-1.327 1.327-1.327h10.68a1.326 1.326 0 0 1 0 2.654H3.994a1.326 1.326 0 0 1-1.327-1.327zm0 8.007c0-.733.595-1.327 1.327-1.327h24.013a1.326 1.326 0 0 1 0 2.654H3.994A1.326 1.326 0 0 1 2.667 16zm1.326 6.68a1.326 1.326 0 0 0 0 2.654h16.013a1.326 1.326 0 0 0 0-2.654H3.993z" style="fill:var(--color1, #fff)"/></symbol><symbol id="icon-facebook" viewBox="0 0 32 32"><path fill="#fff" d="M18.24 8.771h.611v2.291h-.764c-.306 0-.611 0-.764.153-.153.153-.153.305-.153.662v.815h1.68v1.935h-1.68v8.4h-2.596v-8.451h-1.375v-1.935h1.375v-.662c0-1.12.153-1.935.458-2.291.458-.662 1.375-.967 2.749-.967.153.051.305.051.458.051z" opacity=".8" style="fill:var(--color1, #fff)"/><path fill="none" stroke="#fff" stroke-width=".727" d="M7.273.364h17.455a6.909 6.909 0 0 1 6.909 6.909v17.455a6.909 6.909 0 0 1-6.909 6.909H7.273a6.909 6.909 0 0 1-6.909-6.909V7.273A6.909 6.909 0 0 1 7.273.364z" style="stroke:var(--color1, #fff)"/></symbol><symbol id="icon-heart" viewBox="0 0 32 32"><path fill="none" stroke="#fff" stroke-linecap="round" stroke-linejoin="round" stroke-width="2.667" d="M27.787 6.147a7.326 7.326 0 0 0-10.373 0L16.001 7.56l-1.413-1.413a7.333 7.333 0 0 0-10.374 0 7.333 7.333 0 0 0 0 10.374l11.787 11.787 11.787-11.787a7.345 7.345 0 0 0 2.15-5.187 7.33 7.33 0 0 0-2.15-5.187v0z" style="stroke:var(--color1, #fff)"/></symbol><symbol id="icon-instagram" viewBox="0 0 32 32"><path fill="#fff" d="M24.093 12.663a5.895 5.895 0 0 0-.379-2.001 4.166 4.166 0 0 0-2.382-2.378 5.96 5.96 0 0 0-1.978-.379c-.87-.039-1.146-.05-3.355-.05s-2.492 0-3.356.05a5.99 5.99 0 0 0-1.977.379 4.163 4.163 0 0 0-2.382 2.378 5.916 5.916 0 0 0-.379 1.973c-.039.87-.051 1.145-.051 3.351s0 2.487.051 3.351c.014.676.141 1.342.379 1.975a4.166 4.166 0 0 0 2.383 2.377 5.94 5.94 0 0 0 1.977.406c.871.039 1.147.051 3.356.051s2.492 0 3.356-.051a6 6 0 0 0 1.978-.378 4.172 4.172 0 0 0 2.382-2.378 5.948 5.948 0 0 0 .379-1.975c.039-.869.051-1.144.051-3.351-.002-2.206-.002-2.485-.052-3.35zm-8.099 7.493c-2.31 0-4.182-1.869-4.182-4.175s1.872-4.175 4.182-4.175c2.309 0 4.182 1.869 4.182 4.175s-1.874 4.175-4.182 4.175zm4.348-7.531a.973.973 0 1 1 0-1.948.973.973 0 1 1 0 1.948z" opacity=".8" style="fill:var(--color1, #fff)"/><path fill="#fff" d="M15.995 18.53a2.548 2.548 0 1 0 0-5.097 2.548 2.548 0 0 0 0 5.097z" opacity=".8" style="fill:var(--color1, #fff)"/><path fill="none" stroke="#fff" stroke-width=".727" d="M7.273.364h17.455a6.909 6.909 0 0 1 6.909 6.909v17.455a6.909 6.909 0 0 1-6.909 6.909H7.273a6.909 6.909 0 0 1-6.909-6.909V7.273A6.909 6.909 0 0 1 7.273.364z" style="stroke:var(--color1, #fff)"/></symbol><symbol id="icon-left-arrow" viewBox="0 0 32 32"><path fill="none" stroke="#fff" stroke-width=".762" d="M6.857.381h18.286c3.577 0 6.476 2.9 6.476 6.476v18.286a6.475 6.475 0 0 1-6.476 6.476H6.857a6.475 6.475 0 0 1-6.476-6.476V6.857c0-3.577 2.9-6.476 6.476-6.476z" style="stroke:var(--color1, #fff)"/><path fill="none" stroke="#fff" stroke-linecap="round" stroke-linejoin="round" stroke-width=".762" d="M18.286 20.571 13.715 16l4.571-4.571" style="stroke:var(--color1, #fff)"/></symbol><symbol id="icon-logo" viewBox="0 0 28 32"><path d="M21.073 16.002 17.239 7.22l-.836-.58-.98-.312-1.326-.357-1.557.669-1.038.58 3.92 8.782h5.65zM7.314 13.065l3.834 8.803.836.581.98.313 1.326.357 1.557-.67 1.038-.581-3.921-8.803h-5.65z" style="fill:var(--color2, #000)"/><path fill="#fff" d="m11.298 7.335-5.952 8.604 5.952.064 4.303-8.667c.302-.887 1.247-.369 1.682 0-1.858-3.405-4.764-1.419-5.985 0zM17.066 21.756l5.952-8.604-5.952-.064-4.303 8.667c-.302.887-1.247.369-1.682 0 1.858 3.405 4.764 1.419 5.985 0z" style="fill:var(--color1, #fff)"/></symbol><symbol id="icon-right-arrow" viewBox="0 0 32 32"><path fill="none" stroke="#fff" stroke-width=".762" d="M6.857.381h18.286c3.577 0 6.476 2.9 6.476 6.476v18.286a6.475 6.475 0 0 1-6.476 6.476H6.857a6.475 6.475 0 0 1-6.476-6.476V6.857c0-3.577 2.9-6.476 6.476-6.476z" style="stroke:var(--color1, #fff)"/><path fill="none" stroke="#fff" stroke-linecap="round" stroke-linejoin="round" stroke-width=".762" d="M13.714 20.571 18.285 16l-4.571-4.571" style="stroke:var(--color1, #fff)"/></symbol><symbol id="icon-x" viewBox="0 0 32 32"><path fill="none" stroke="#fff" stroke-linecap="round" stroke-linejoin="round" stroke-width="1.733" d="M24 8 8 24M8 8l16 16" style="stroke:var(--color1, #fff)"/></symbol></defs></svg>